# xmcd
#
# Track frame offsets: 
# 182
# 12365
# 25402
# 47517
# 62990
# 68030
# 97145
# 102265
# 113315
# 122592
# 132347
# 147940
# 155317
# 173522
# 185960
# 194610
# 215332
# 225635
# 244332
# 264252
# 275805
#
# Disc length: 3799 seconds
# Submitted via: tkcNetwork 1.0
# Revision: 0
# Processed by: cddbd v1.5.1PL0 Copyright (c) Steve Scherf et al.
#
DISCID=320ed515
DTITLE=Various Artist - Heavy Classix Vol 2
DYEAR=1900
DGENRE=
TTITLE0=Orff - O Fortuna
TTITLE1=Prokofiev - The Alien God And the Dance of the Evil Spirits
TTITLE2=Resphighi - Circuses
TTITLE3=Shostakovich - Symphony No 5 In D Minor, Op. 47: IV. Allegro Non Troppo
TTITLE4=Stravinsky - Danse Do La Terre
TTITLE5=Mussorgsky - Night On Bald Mountain
TTITLE6=Sibelius - Finlandia
TTITLE7=Grieg - In The Hall Of The Mountain King
TTITLE8=Wagner - Die Walkure
TTITLE9=Bartok - The Miraculous Mandarin
TTITLE10=Franck - Le Chasseur Maudit
TTITLE11=Stravinsky - Glorification De L'Elue
TTITLE12=Ravel - Danse Generale
TTITLE13=Dukas - The Sorcerer's Apprentice
TTITLE14=Khachaturian - Dance Of The Mountaineers
TTITLE15=Tchaikovsky - Symphony No. 6 In B Minor, Op. 74 "Pathetique": I. Allegro Non Troppo
TTITLE16=Janacek - Sinfonietta: I. Allegretto
TTITLE17=Prokofiev - The Death of Tybalt
TTITLE18=Shostakovich - Symphony No. 10 in E Minor, Op. 93: II. Allegro
TTITLE19=Stravinsky - Danse Sacrale
TTITLE20=Tchaikovsky - Manfred Symphony, Op. 58: I. Andante
EXTD=
EXTT0=
EXTT1=
EXTT2=
EXTT3=
EXTT4=
EXTT5=
EXTT6=
EXTT7=
EXTT8=
EXTT9=
EXTT10=
EXTT11=
EXTT12=
EXTT13=
EXTT14=
EXTT15=
EXTT16=
EXTT17=
EXTT18=
EXTT19=
EXTT20=
PLAYORDER=
